<mxfile host="app.diagrams.net" agent="Mozilla/5.0 (Windows NT 10.0; Win64; x64) AppleWebKit/537.36 (KHTML, like Gecko) Chrome/137.0.0.0 Safari/537.36" version="27.0.6">
  <diagram name="Page-1" id="2YBvvXClWsGukQMizWep">
    <mxGraphModel dx="1584" dy="870" grid="1" gridSize="10" guides="1" tooltips="1" connect="1" arrows="1" fold="1" page="1" pageScale="1" pageWidth="850" pageHeight="1100" math="0" shadow="0">
      <root>
        <mxCell id="0" />
        <mxCell id="1" parent="0" />
        <mxCell id="aM9ryv3xv72pqoxQDRHE-1" value="&amp;lt;&amp;lt;View&amp;gt;&amp;gt;&lt;div&gt;:ProductWindow&lt;/div&gt;" style="shape=umlLifeline;perimeter=lifelinePerimeter;whiteSpace=wrap;html=1;container=0;dropTarget=0;collapsible=0;recursiveResize=0;outlineConnect=0;portConstraint=eastwest;newEdgeStyle={&quot;edgeStyle&quot;:&quot;elbowEdgeStyle&quot;,&quot;elbow&quot;:&quot;vertical&quot;,&quot;curved&quot;:0,&quot;rounded&quot;:0};" parent="1" vertex="1">
          <mxGeometry x="250" y="190" width="100" height="350" as="geometry" />
        </mxCell>
        <mxCell id="aM9ryv3xv72pqoxQDRHE-2" value="" style="html=1;points=[];perimeter=orthogonalPerimeter;outlineConnect=0;targetShapes=umlLifeline;portConstraint=eastwest;newEdgeStyle={&quot;edgeStyle&quot;:&quot;elbowEdgeStyle&quot;,&quot;elbow&quot;:&quot;vertical&quot;,&quot;curved&quot;:0,&quot;rounded&quot;:0};" parent="aM9ryv3xv72pqoxQDRHE-1" vertex="1">
          <mxGeometry x="45" y="70" width="10" height="230" as="geometry" />
        </mxCell>
        <mxCell id="aM9ryv3xv72pqoxQDRHE-5" value="&amp;lt;&amp;lt;Controller&amp;gt;&amp;gt;&lt;div&gt;:ProductHandler&lt;/div&gt;" style="shape=umlLifeline;perimeter=lifelinePerimeter;whiteSpace=wrap;html=1;container=0;dropTarget=0;collapsible=0;recursiveResize=0;outlineConnect=0;portConstraint=eastwest;newEdgeStyle={&quot;edgeStyle&quot;:&quot;elbowEdgeStyle&quot;,&quot;elbow&quot;:&quot;vertical&quot;,&quot;curved&quot;:0,&quot;rounded&quot;:0};" parent="1" vertex="1">
          <mxGeometry x="450" y="190" width="100" height="350" as="geometry" />
        </mxCell>
        <mxCell id="aM9ryv3xv72pqoxQDRHE-6" value="" style="html=1;points=[];perimeter=orthogonalPerimeter;outlineConnect=0;targetShapes=umlLifeline;portConstraint=eastwest;newEdgeStyle={&quot;edgeStyle&quot;:&quot;elbowEdgeStyle&quot;,&quot;elbow&quot;:&quot;vertical&quot;,&quot;curved&quot;:0,&quot;rounded&quot;:0};" parent="aM9ryv3xv72pqoxQDRHE-5" vertex="1">
          <mxGeometry x="45" y="100" width="10" height="170" as="geometry" />
        </mxCell>
        <mxCell id="aM9ryv3xv72pqoxQDRHE-7" value="Lấy thông tin sản phẩm&lt;span style=&quot;white-space: pre;&quot;&gt;&#x9;&lt;/span&gt;" style="html=1;verticalAlign=bottom;endArrow=block;edgeStyle=elbowEdgeStyle;elbow=vertical;curved=0;rounded=0;" parent="1" source="aM9ryv3xv72pqoxQDRHE-2" target="aM9ryv3xv72pqoxQDRHE-6" edge="1">
          <mxGeometry relative="1" as="geometry">
            <mxPoint x="310" y="320" as="sourcePoint" />
            <Array as="points">
              <mxPoint x="415" y="320" />
            </Array>
            <mxPoint x="490" y="320" as="targetPoint" />
            <mxPoint as="offset" />
          </mxGeometry>
        </mxCell>
        <mxCell id="aM9ryv3xv72pqoxQDRHE-8" value="Thông tin về các sản phẩm" style="html=1;verticalAlign=bottom;endArrow=open;dashed=1;endSize=8;edgeStyle=elbowEdgeStyle;elbow=vertical;curved=0;rounded=0;" parent="1" source="aM9ryv3xv72pqoxQDRHE-6" target="aM9ryv3xv72pqoxQDRHE-2" edge="1">
          <mxGeometry relative="1" as="geometry">
            <mxPoint x="310" y="430" as="targetPoint" />
            <Array as="points">
              <mxPoint x="425" y="430" />
            </Array>
            <mxPoint x="470" y="430" as="sourcePoint" />
          </mxGeometry>
        </mxCell>
        <mxCell id="xA2Wl5JB03KacFfY15XN-1" value="aC: Product" style="shape=umlLifeline;perimeter=lifelinePerimeter;whiteSpace=wrap;html=1;container=0;dropTarget=0;collapsible=0;recursiveResize=0;outlineConnect=0;portConstraint=eastwest;newEdgeStyle={&quot;edgeStyle&quot;:&quot;elbowEdgeStyle&quot;,&quot;elbow&quot;:&quot;vertical&quot;,&quot;curved&quot;:0,&quot;rounded&quot;:0};" vertex="1" parent="1">
          <mxGeometry x="640" y="190" width="100" height="350" as="geometry" />
        </mxCell>
        <mxCell id="xA2Wl5JB03KacFfY15XN-2" value="" style="html=1;points=[];perimeter=orthogonalPerimeter;outlineConnect=0;targetShapes=umlLifeline;portConstraint=eastwest;newEdgeStyle={&quot;edgeStyle&quot;:&quot;elbowEdgeStyle&quot;,&quot;elbow&quot;:&quot;vertical&quot;,&quot;curved&quot;:0,&quot;rounded&quot;:0};" vertex="1" parent="xA2Wl5JB03KacFfY15XN-1">
          <mxGeometry x="45" y="110" width="10" height="140" as="geometry" />
        </mxCell>
        <mxCell id="xA2Wl5JB03KacFfY15XN-3" value="&amp;lt;&amp;lt;Dam&amp;gt;&amp;gt;&lt;div&gt;:ProductDAM&lt;/div&gt;" style="shape=umlLifeline;perimeter=lifelinePerimeter;whiteSpace=wrap;html=1;container=0;dropTarget=0;collapsible=0;recursiveResize=0;outlineConnect=0;portConstraint=eastwest;newEdgeStyle={&quot;edgeStyle&quot;:&quot;elbowEdgeStyle&quot;,&quot;elbow&quot;:&quot;vertical&quot;,&quot;curved&quot;:0,&quot;rounded&quot;:0};" vertex="1" parent="1">
          <mxGeometry x="830" y="190" width="100" height="350" as="geometry" />
        </mxCell>
        <mxCell id="xA2Wl5JB03KacFfY15XN-4" value="" style="html=1;points=[];perimeter=orthogonalPerimeter;outlineConnect=0;targetShapes=umlLifeline;portConstraint=eastwest;newEdgeStyle={&quot;edgeStyle&quot;:&quot;elbowEdgeStyle&quot;,&quot;elbow&quot;:&quot;vertical&quot;,&quot;curved&quot;:0,&quot;rounded&quot;:0};" vertex="1" parent="xA2Wl5JB03KacFfY15XN-3">
          <mxGeometry x="45" y="120" width="10" height="120" as="geometry" />
        </mxCell>
        <mxCell id="xA2Wl5JB03KacFfY15XN-5" value="Database" style="shape=umlLifeline;perimeter=lifelinePerimeter;whiteSpace=wrap;html=1;container=0;dropTarget=0;collapsible=0;recursiveResize=0;outlineConnect=0;portConstraint=eastwest;newEdgeStyle={&quot;edgeStyle&quot;:&quot;elbowEdgeStyle&quot;,&quot;elbow&quot;:&quot;vertical&quot;,&quot;curved&quot;:0,&quot;rounded&quot;:0};" vertex="1" parent="1">
          <mxGeometry x="1000" y="190" width="100" height="350" as="geometry" />
        </mxCell>
        <mxCell id="xA2Wl5JB03KacFfY15XN-6" value="" style="html=1;points=[];perimeter=orthogonalPerimeter;outlineConnect=0;targetShapes=umlLifeline;portConstraint=eastwest;newEdgeStyle={&quot;edgeStyle&quot;:&quot;elbowEdgeStyle&quot;,&quot;elbow&quot;:&quot;vertical&quot;,&quot;curved&quot;:0,&quot;rounded&quot;:0};" vertex="1" parent="xA2Wl5JB03KacFfY15XN-5">
          <mxGeometry x="45" y="140" width="10" height="80" as="geometry" />
        </mxCell>
        <mxCell id="xA2Wl5JB03KacFfY15XN-7" value="ac = đơn hàng&lt;div&gt;(id, tên, giá tiền, số lượng)&lt;/div&gt;" style="html=1;verticalAlign=bottom;endArrow=block;edgeStyle=elbowEdgeStyle;elbow=horizontal;curved=0;rounded=0;" edge="1" parent="1" source="aM9ryv3xv72pqoxQDRHE-6" target="xA2Wl5JB03KacFfY15XN-2">
          <mxGeometry relative="1" as="geometry">
            <mxPoint x="510" y="330" as="sourcePoint" />
            <Array as="points">
              <mxPoint x="600" y="330" />
            </Array>
            <mxPoint x="650" y="330" as="targetPoint" />
            <mxPoint as="offset" />
          </mxGeometry>
        </mxCell>
        <mxCell id="xA2Wl5JB03KacFfY15XN-8" value="ReadDB(ac)" style="html=1;verticalAlign=bottom;endArrow=block;edgeStyle=elbowEdgeStyle;elbow=vertical;curved=0;rounded=0;" edge="1" parent="1" source="xA2Wl5JB03KacFfY15XN-2" target="xA2Wl5JB03KacFfY15XN-4">
          <mxGeometry relative="1" as="geometry">
            <mxPoint x="700" y="339.5" as="sourcePoint" />
            <Array as="points">
              <mxPoint x="790" y="339.5" />
            </Array>
            <mxPoint x="890" y="340" as="targetPoint" />
            <mxPoint as="offset" />
          </mxGeometry>
        </mxCell>
        <mxCell id="xA2Wl5JB03KacFfY15XN-9" value="lấy thông tin về ac trong csdl" style="html=1;verticalAlign=bottom;endArrow=block;edgeStyle=elbowEdgeStyle;elbow=vertical;curved=0;rounded=0;" edge="1" parent="1" source="xA2Wl5JB03KacFfY15XN-4" target="xA2Wl5JB03KacFfY15XN-6">
          <mxGeometry relative="1" as="geometry">
            <mxPoint x="890" y="350" as="sourcePoint" />
            <Array as="points">
              <mxPoint x="980" y="350" />
            </Array>
            <mxPoint x="1020" y="350" as="targetPoint" />
            <mxPoint as="offset" />
          </mxGeometry>
        </mxCell>
        <mxCell id="xA2Wl5JB03KacFfY15XN-14" value="Người dùng" style="shape=umlActor;verticalLabelPosition=bottom;verticalAlign=top;html=1;outlineConnect=0;" vertex="1" parent="1">
          <mxGeometry x="110" y="150" width="30" height="60" as="geometry" />
        </mxCell>
        <mxCell id="xA2Wl5JB03KacFfY15XN-16" value="" style="endArrow=none;dashed=1;html=1;rounded=0;" edge="1" parent="1" target="xA2Wl5JB03KacFfY15XN-14">
          <mxGeometry width="50" height="50" relative="1" as="geometry">
            <mxPoint x="125" y="1280" as="sourcePoint" />
            <mxPoint x="470" y="470" as="targetPoint" />
          </mxGeometry>
        </mxCell>
        <mxCell id="xA2Wl5JB03KacFfY15XN-11" value="" style="html=1;points=[];perimeter=orthogonalPerimeter;outlineConnect=0;targetShapes=umlLifeline;portConstraint=eastwest;newEdgeStyle={&quot;edgeStyle&quot;:&quot;elbowEdgeStyle&quot;,&quot;elbow&quot;:&quot;vertical&quot;,&quot;curved&quot;:0,&quot;rounded&quot;:0};" vertex="1" parent="1">
          <mxGeometry x="120" y="260" width="10" height="980" as="geometry" />
        </mxCell>
        <mxCell id="xA2Wl5JB03KacFfY15XN-63" value="Chọn sản phẩm" style="html=1;verticalAlign=bottom;endArrow=block;edgeStyle=elbowEdgeStyle;elbow=vertical;curved=0;rounded=0;" edge="1" parent="1" target="aM9ryv3xv72pqoxQDRHE-2">
          <mxGeometry relative="1" as="geometry">
            <mxPoint x="130" y="310" as="sourcePoint" />
            <Array as="points">
              <mxPoint x="225" y="310" />
            </Array>
            <mxPoint x="270" y="310" as="targetPoint" />
            <mxPoint as="offset" />
          </mxGeometry>
        </mxCell>
        <mxCell id="xA2Wl5JB03KacFfY15XN-64" value="Thông tin về ac" style="html=1;verticalAlign=bottom;endArrow=open;dashed=1;endSize=8;edgeStyle=elbowEdgeStyle;elbow=vertical;curved=0;rounded=0;" edge="1" parent="1" target="xA2Wl5JB03KacFfY15XN-4">
          <mxGeometry relative="1" as="geometry">
            <mxPoint x="900" y="400" as="targetPoint" />
            <Array as="points">
              <mxPoint x="965" y="400" />
            </Array>
            <mxPoint x="1040" y="400" as="sourcePoint" />
          </mxGeometry>
        </mxCell>
        <mxCell id="xA2Wl5JB03KacFfY15XN-65" value="Thông tin về ac" style="html=1;verticalAlign=bottom;endArrow=open;dashed=1;endSize=8;edgeStyle=elbowEdgeStyle;elbow=vertical;curved=0;rounded=0;" edge="1" parent="1" source="xA2Wl5JB03KacFfY15XN-4" target="xA2Wl5JB03KacFfY15XN-2">
          <mxGeometry relative="1" as="geometry">
            <mxPoint x="710" y="410" as="targetPoint" />
            <Array as="points">
              <mxPoint x="805" y="410" />
            </Array>
            <mxPoint x="870" y="410" as="sourcePoint" />
          </mxGeometry>
        </mxCell>
        <mxCell id="xA2Wl5JB03KacFfY15XN-66" value="Thông tin về các sản phẩm" style="html=1;verticalAlign=bottom;endArrow=open;dashed=1;endSize=8;edgeStyle=elbowEdgeStyle;elbow=vertical;curved=0;rounded=0;" edge="1" parent="1" source="xA2Wl5JB03KacFfY15XN-2" target="aM9ryv3xv72pqoxQDRHE-6">
          <mxGeometry relative="1" as="geometry">
            <mxPoint x="540" y="420" as="targetPoint" />
            <Array as="points">
              <mxPoint x="610" y="420" />
            </Array>
            <mxPoint x="680" y="420" as="sourcePoint" />
          </mxGeometry>
        </mxCell>
        <mxCell id="xA2Wl5JB03KacFfY15XN-126" value="Đặt hàng" style="html=1;verticalAlign=bottom;endArrow=block;edgeStyle=elbowEdgeStyle;elbow=vertical;curved=0;rounded=0;" edge="1" parent="1">
          <mxGeometry relative="1" as="geometry">
            <mxPoint x="130" y="660" as="sourcePoint" />
            <Array as="points">
              <mxPoint x="225" y="660" />
            </Array>
            <mxPoint x="295" y="660" as="targetPoint" />
            <mxPoint as="offset" />
          </mxGeometry>
        </mxCell>
        <mxCell id="xA2Wl5JB03KacFfY15XN-129" value="&amp;lt;&amp;lt;View&amp;gt;&amp;gt;&lt;div&gt;:OrderWindow&lt;/div&gt;" style="shape=umlLifeline;perimeter=lifelinePerimeter;whiteSpace=wrap;html=1;container=0;dropTarget=0;collapsible=0;recursiveResize=0;outlineConnect=0;portConstraint=eastwest;newEdgeStyle={&quot;edgeStyle&quot;:&quot;elbowEdgeStyle&quot;,&quot;elbow&quot;:&quot;vertical&quot;,&quot;curved&quot;:0,&quot;rounded&quot;:0};" vertex="1" parent="1">
          <mxGeometry x="250" y="540" width="100" height="200" as="geometry" />
        </mxCell>
        <mxCell id="xA2Wl5JB03KacFfY15XN-130" value="" style="html=1;points=[];perimeter=orthogonalPerimeter;outlineConnect=0;targetShapes=umlLifeline;portConstraint=eastwest;newEdgeStyle={&quot;edgeStyle&quot;:&quot;elbowEdgeStyle&quot;,&quot;elbow&quot;:&quot;vertical&quot;,&quot;curved&quot;:0,&quot;rounded&quot;:0};" vertex="1" parent="xA2Wl5JB03KacFfY15XN-129">
          <mxGeometry x="45" y="70" width="10" height="90" as="geometry" />
        </mxCell>
        <mxCell id="xA2Wl5JB03KacFfY15XN-131" value="&amp;lt;&amp;lt;Controller&amp;gt;&amp;gt;&lt;div&gt;:OrderHandler&lt;/div&gt;" style="shape=umlLifeline;perimeter=lifelinePerimeter;whiteSpace=wrap;html=1;container=0;dropTarget=0;collapsible=0;recursiveResize=0;outlineConnect=0;portConstraint=eastwest;newEdgeStyle={&quot;edgeStyle&quot;:&quot;elbowEdgeStyle&quot;,&quot;elbow&quot;:&quot;vertical&quot;,&quot;curved&quot;:0,&quot;rounded&quot;:0};" vertex="1" parent="1">
          <mxGeometry x="450" y="540" width="100" height="380" as="geometry" />
        </mxCell>
        <mxCell id="xA2Wl5JB03KacFfY15XN-132" value="" style="html=1;points=[];perimeter=orthogonalPerimeter;outlineConnect=0;targetShapes=umlLifeline;portConstraint=eastwest;newEdgeStyle={&quot;edgeStyle&quot;:&quot;elbowEdgeStyle&quot;,&quot;elbow&quot;:&quot;vertical&quot;,&quot;curved&quot;:0,&quot;rounded&quot;:0};" vertex="1" parent="xA2Wl5JB03KacFfY15XN-131">
          <mxGeometry x="45" y="100" width="10" height="220" as="geometry" />
        </mxCell>
        <mxCell id="xA2Wl5JB03KacFfY15XN-133" value="aC: Order" style="shape=umlLifeline;perimeter=lifelinePerimeter;whiteSpace=wrap;html=1;container=0;dropTarget=0;collapsible=0;recursiveResize=0;outlineConnect=0;portConstraint=eastwest;newEdgeStyle={&quot;edgeStyle&quot;:&quot;elbowEdgeStyle&quot;,&quot;elbow&quot;:&quot;vertical&quot;,&quot;curved&quot;:0,&quot;rounded&quot;:0};" vertex="1" parent="1">
          <mxGeometry x="640" y="540" width="100" height="380" as="geometry" />
        </mxCell>
        <mxCell id="xA2Wl5JB03KacFfY15XN-134" value="" style="html=1;points=[];perimeter=orthogonalPerimeter;outlineConnect=0;targetShapes=umlLifeline;portConstraint=eastwest;newEdgeStyle={&quot;edgeStyle&quot;:&quot;elbowEdgeStyle&quot;,&quot;elbow&quot;:&quot;vertical&quot;,&quot;curved&quot;:0,&quot;rounded&quot;:0};" vertex="1" parent="xA2Wl5JB03KacFfY15XN-133">
          <mxGeometry x="45" y="110" width="10" height="190" as="geometry" />
        </mxCell>
        <mxCell id="xA2Wl5JB03KacFfY15XN-135" value="&amp;lt;&amp;lt;Dam&amp;gt;&amp;gt;&lt;div&gt;:OrderDAM&lt;/div&gt;" style="shape=umlLifeline;perimeter=lifelinePerimeter;whiteSpace=wrap;html=1;container=0;dropTarget=0;collapsible=0;recursiveResize=0;outlineConnect=0;portConstraint=eastwest;newEdgeStyle={&quot;edgeStyle&quot;:&quot;elbowEdgeStyle&quot;,&quot;elbow&quot;:&quot;vertical&quot;,&quot;curved&quot;:0,&quot;rounded&quot;:0};" vertex="1" parent="1">
          <mxGeometry x="830" y="540" width="100" height="340" as="geometry" />
        </mxCell>
        <mxCell id="xA2Wl5JB03KacFfY15XN-136" value="" style="html=1;points=[];perimeter=orthogonalPerimeter;outlineConnect=0;targetShapes=umlLifeline;portConstraint=eastwest;newEdgeStyle={&quot;edgeStyle&quot;:&quot;elbowEdgeStyle&quot;,&quot;elbow&quot;:&quot;vertical&quot;,&quot;curved&quot;:0,&quot;rounded&quot;:0};" vertex="1" parent="xA2Wl5JB03KacFfY15XN-135">
          <mxGeometry x="45" y="120" width="10" height="160" as="geometry" />
        </mxCell>
        <mxCell id="xA2Wl5JB03KacFfY15XN-137" value="Database" style="shape=umlLifeline;perimeter=lifelinePerimeter;whiteSpace=wrap;html=1;container=0;dropTarget=0;collapsible=0;recursiveResize=0;outlineConnect=0;portConstraint=eastwest;newEdgeStyle={&quot;edgeStyle&quot;:&quot;elbowEdgeStyle&quot;,&quot;elbow&quot;:&quot;vertical&quot;,&quot;curved&quot;:0,&quot;rounded&quot;:0};" vertex="1" parent="1">
          <mxGeometry x="1000" y="540" width="100" height="340" as="geometry" />
        </mxCell>
        <mxCell id="xA2Wl5JB03KacFfY15XN-138" value="" style="html=1;points=[];perimeter=orthogonalPerimeter;outlineConnect=0;targetShapes=umlLifeline;portConstraint=eastwest;newEdgeStyle={&quot;edgeStyle&quot;:&quot;elbowEdgeStyle&quot;,&quot;elbow&quot;:&quot;vertical&quot;,&quot;curved&quot;:0,&quot;rounded&quot;:0};" vertex="1" parent="xA2Wl5JB03KacFfY15XN-137">
          <mxGeometry x="45" y="140" width="10" height="120" as="geometry" />
        </mxCell>
        <mxCell id="xA2Wl5JB03KacFfY15XN-153" value="Yêu cầu tạo đơn hàng&amp;nbsp;" style="html=1;verticalAlign=bottom;endArrow=block;edgeStyle=elbowEdgeStyle;elbow=vertical;curved=0;rounded=0;" edge="1" parent="1">
          <mxGeometry relative="1" as="geometry">
            <mxPoint x="305" y="680" as="sourcePoint" />
            <Array as="points">
              <mxPoint x="420" y="680" />
            </Array>
            <mxPoint x="495" y="680" as="targetPoint" />
            <mxPoint as="offset" />
          </mxGeometry>
        </mxCell>
        <mxCell id="xA2Wl5JB03KacFfY15XN-154" value="ac = order&lt;div&gt;(id, tên, giá tiền, số lượng)&lt;/div&gt;" style="html=1;verticalAlign=bottom;endArrow=block;edgeStyle=elbowEdgeStyle;elbow=horizontal;curved=0;rounded=0;" edge="1" parent="1">
          <mxGeometry relative="1" as="geometry">
            <mxPoint x="505" y="690" as="sourcePoint" />
            <Array as="points">
              <mxPoint x="605" y="690" />
            </Array>
            <mxPoint x="685" y="690" as="targetPoint" />
            <mxPoint as="offset" />
          </mxGeometry>
        </mxCell>
        <mxCell id="xA2Wl5JB03KacFfY15XN-155" value="wrriteDB(ac)" style="html=1;verticalAlign=bottom;endArrow=block;edgeStyle=elbowEdgeStyle;elbow=vertical;curved=0;rounded=0;" edge="1" parent="1">
          <mxGeometry relative="1" as="geometry">
            <mxPoint x="696" y="699.7142857142856" as="sourcePoint" />
            <Array as="points" />
            <mxPoint x="876" y="699.7142857142856" as="targetPoint" />
            <mxPoint as="offset" />
          </mxGeometry>
        </mxCell>
        <mxCell id="xA2Wl5JB03KacFfY15XN-156" value="Ghi thông tin về ac trong csdl" style="html=1;verticalAlign=bottom;endArrow=block;edgeStyle=elbowEdgeStyle;elbow=vertical;curved=0;rounded=0;" edge="1" parent="1">
          <mxGeometry relative="1" as="geometry">
            <mxPoint x="885" y="710" as="sourcePoint" />
            <Array as="points">
              <mxPoint x="985" y="710" />
            </Array>
            <mxPoint x="1045" y="710" as="targetPoint" />
            <mxPoint as="offset" />
          </mxGeometry>
        </mxCell>
        <mxCell id="xA2Wl5JB03KacFfY15XN-157" value="Hiển thị cửa sổ nhập thông tin" style="html=1;verticalAlign=bottom;endArrow=open;dashed=1;endSize=8;edgeStyle=elbowEdgeStyle;elbow=horizontal;curved=0;rounded=0;" edge="1" parent="1">
          <mxGeometry relative="1" as="geometry">
            <mxPoint x="310" y="810" as="targetPoint" />
            <Array as="points">
              <mxPoint x="430" y="810" />
            </Array>
            <mxPoint x="500" y="810" as="sourcePoint" />
          </mxGeometry>
        </mxCell>
        <mxCell id="xA2Wl5JB03KacFfY15XN-158" value="Thông tin về ac" style="html=1;verticalAlign=bottom;endArrow=open;dashed=1;endSize=8;edgeStyle=elbowEdgeStyle;elbow=vertical;curved=0;rounded=0;" edge="1" parent="1">
          <mxGeometry relative="1" as="geometry">
            <mxPoint x="890" y="780" as="targetPoint" />
            <Array as="points">
              <mxPoint x="970" y="780" />
            </Array>
            <mxPoint x="1045" y="780" as="sourcePoint" />
          </mxGeometry>
        </mxCell>
        <mxCell id="xA2Wl5JB03KacFfY15XN-159" value="Thông tin về ac" style="html=1;verticalAlign=bottom;endArrow=open;dashed=1;endSize=8;edgeStyle=elbowEdgeStyle;elbow=vertical;curved=0;rounded=0;" edge="1" parent="1">
          <mxGeometry relative="1" as="geometry">
            <mxPoint x="700" y="790" as="targetPoint" />
            <Array as="points">
              <mxPoint x="810" y="790" />
            </Array>
            <mxPoint x="880" y="790" as="sourcePoint" />
          </mxGeometry>
        </mxCell>
        <mxCell id="xA2Wl5JB03KacFfY15XN-160" value="Trả về kết quả lưu đơn hàng" style="html=1;verticalAlign=bottom;endArrow=open;dashed=1;endSize=8;edgeStyle=elbowEdgeStyle;elbow=vertical;curved=0;rounded=0;" edge="1" parent="1">
          <mxGeometry relative="1" as="geometry">
            <mxPoint x="510" y="800" as="targetPoint" />
            <Array as="points">
              <mxPoint x="615" y="800" />
            </Array>
            <mxPoint x="690" y="800" as="sourcePoint" />
          </mxGeometry>
        </mxCell>
        <mxCell id="xA2Wl5JB03KacFfY15XN-161" value="&amp;lt;&amp;lt;View&amp;gt;&amp;gt;&lt;div&gt;:ShippinginfoWindow&lt;/div&gt;" style="shape=umlLifeline;perimeter=lifelinePerimeter;whiteSpace=wrap;html=1;container=0;dropTarget=0;collapsible=0;recursiveResize=0;outlineConnect=0;portConstraint=eastwest;newEdgeStyle={&quot;edgeStyle&quot;:&quot;elbowEdgeStyle&quot;,&quot;elbow&quot;:&quot;vertical&quot;,&quot;curved&quot;:0,&quot;rounded&quot;:0};" vertex="1" parent="1">
          <mxGeometry x="240" y="720" width="120" height="560" as="geometry" />
        </mxCell>
        <mxCell id="xA2Wl5JB03KacFfY15XN-162" value="" style="html=1;points=[];perimeter=orthogonalPerimeter;outlineConnect=0;targetShapes=umlLifeline;portConstraint=eastwest;newEdgeStyle={&quot;edgeStyle&quot;:&quot;elbowEdgeStyle&quot;,&quot;elbow&quot;:&quot;vertical&quot;,&quot;curved&quot;:0,&quot;rounded&quot;:0};" vertex="1" parent="xA2Wl5JB03KacFfY15XN-161">
          <mxGeometry x="55" y="80" width="10" height="390" as="geometry" />
        </mxCell>
        <mxCell id="xA2Wl5JB03KacFfY15XN-163" value="&amp;lt;&amp;lt;Controller&amp;gt;&amp;gt;&lt;div&gt;:ShippinginfoHandler&lt;/div&gt;" style="shape=umlLifeline;perimeter=lifelinePerimeter;whiteSpace=wrap;html=1;container=0;dropTarget=0;collapsible=0;recursiveResize=0;outlineConnect=0;portConstraint=eastwest;newEdgeStyle={&quot;edgeStyle&quot;:&quot;elbowEdgeStyle&quot;,&quot;elbow&quot;:&quot;vertical&quot;,&quot;curved&quot;:0,&quot;rounded&quot;:0};" vertex="1" parent="1">
          <mxGeometry x="440" y="880" width="120" height="400" as="geometry" />
        </mxCell>
        <mxCell id="xA2Wl5JB03KacFfY15XN-164" value="" style="html=1;points=[];perimeter=orthogonalPerimeter;outlineConnect=0;targetShapes=umlLifeline;portConstraint=eastwest;newEdgeStyle={&quot;edgeStyle&quot;:&quot;elbowEdgeStyle&quot;,&quot;elbow&quot;:&quot;vertical&quot;,&quot;curved&quot;:0,&quot;rounded&quot;:0};" vertex="1" parent="xA2Wl5JB03KacFfY15XN-163">
          <mxGeometry x="55" y="80" width="10" height="110" as="geometry" />
        </mxCell>
        <mxCell id="xA2Wl5JB03KacFfY15XN-165" value="aC: Shippinginfo" style="shape=umlLifeline;perimeter=lifelinePerimeter;whiteSpace=wrap;html=1;container=0;dropTarget=0;collapsible=0;recursiveResize=0;outlineConnect=0;portConstraint=eastwest;newEdgeStyle={&quot;edgeStyle&quot;:&quot;elbowEdgeStyle&quot;,&quot;elbow&quot;:&quot;vertical&quot;,&quot;curved&quot;:0,&quot;rounded&quot;:0};" vertex="1" parent="1">
          <mxGeometry x="640" y="880" width="100" height="400" as="geometry" />
        </mxCell>
        <mxCell id="xA2Wl5JB03KacFfY15XN-166" value="" style="html=1;points=[];perimeter=orthogonalPerimeter;outlineConnect=0;targetShapes=umlLifeline;portConstraint=eastwest;newEdgeStyle={&quot;edgeStyle&quot;:&quot;elbowEdgeStyle&quot;,&quot;elbow&quot;:&quot;vertical&quot;,&quot;curved&quot;:0,&quot;rounded&quot;:0};" vertex="1" parent="xA2Wl5JB03KacFfY15XN-165">
          <mxGeometry x="45" y="80" width="10" height="120" as="geometry" />
        </mxCell>
        <mxCell id="xA2Wl5JB03KacFfY15XN-167" value="&amp;lt;&amp;lt;Dam&amp;gt;&amp;gt;&lt;div&gt;:ShippinginfoDAM&lt;/div&gt;" style="shape=umlLifeline;perimeter=lifelinePerimeter;whiteSpace=wrap;html=1;container=0;dropTarget=0;collapsible=0;recursiveResize=0;outlineConnect=0;portConstraint=eastwest;newEdgeStyle={&quot;edgeStyle&quot;:&quot;elbowEdgeStyle&quot;,&quot;elbow&quot;:&quot;vertical&quot;,&quot;curved&quot;:0,&quot;rounded&quot;:0};" vertex="1" parent="1">
          <mxGeometry x="830" y="880" width="100" height="400" as="geometry" />
        </mxCell>
        <mxCell id="xA2Wl5JB03KacFfY15XN-168" value="" style="html=1;points=[];perimeter=orthogonalPerimeter;outlineConnect=0;targetShapes=umlLifeline;portConstraint=eastwest;newEdgeStyle={&quot;edgeStyle&quot;:&quot;elbowEdgeStyle&quot;,&quot;elbow&quot;:&quot;vertical&quot;,&quot;curved&quot;:0,&quot;rounded&quot;:0};" vertex="1" parent="xA2Wl5JB03KacFfY15XN-167">
          <mxGeometry x="45" y="100" width="10" height="120" as="geometry" />
        </mxCell>
        <mxCell id="xA2Wl5JB03KacFfY15XN-169" value="Database" style="shape=umlLifeline;perimeter=lifelinePerimeter;whiteSpace=wrap;html=1;container=0;dropTarget=0;collapsible=0;recursiveResize=0;outlineConnect=0;portConstraint=eastwest;newEdgeStyle={&quot;edgeStyle&quot;:&quot;elbowEdgeStyle&quot;,&quot;elbow&quot;:&quot;vertical&quot;,&quot;curved&quot;:0,&quot;rounded&quot;:0};" vertex="1" parent="1">
          <mxGeometry x="1000" y="880" width="100" height="400" as="geometry" />
        </mxCell>
        <mxCell id="xA2Wl5JB03KacFfY15XN-170" value="" style="html=1;points=[];perimeter=orthogonalPerimeter;outlineConnect=0;targetShapes=umlLifeline;portConstraint=eastwest;newEdgeStyle={&quot;edgeStyle&quot;:&quot;elbowEdgeStyle&quot;,&quot;elbow&quot;:&quot;vertical&quot;,&quot;curved&quot;:0,&quot;rounded&quot;:0};" vertex="1" parent="xA2Wl5JB03KacFfY15XN-169">
          <mxGeometry x="45" y="120" width="10" height="130" as="geometry" />
        </mxCell>
        <mxCell id="xA2Wl5JB03KacFfY15XN-171" value="Yêu cầu lưu thông tin nhận hàng" style="html=1;verticalAlign=bottom;endArrow=block;edgeStyle=elbowEdgeStyle;elbow=vertical;curved=0;rounded=0;" edge="1" parent="1">
          <mxGeometry relative="1" as="geometry">
            <mxPoint x="305" y="1020" as="sourcePoint" />
            <Array as="points">
              <mxPoint x="420" y="1020" />
            </Array>
            <mxPoint x="495" y="1020" as="targetPoint" />
            <mxPoint as="offset" />
          </mxGeometry>
        </mxCell>
        <mxCell id="xA2Wl5JB03KacFfY15XN-172" value="ac = shippinginfo&lt;div&gt;(id, tên, sdt, địa chỉ)&lt;/div&gt;" style="html=1;verticalAlign=bottom;endArrow=block;edgeStyle=elbowEdgeStyle;elbow=horizontal;curved=0;rounded=0;" edge="1" parent="1">
          <mxGeometry relative="1" as="geometry">
            <mxPoint x="505" y="1030" as="sourcePoint" />
            <Array as="points">
              <mxPoint x="605" y="1030" />
            </Array>
            <mxPoint x="685" y="1030" as="targetPoint" />
            <mxPoint as="offset" />
          </mxGeometry>
        </mxCell>
        <mxCell id="xA2Wl5JB03KacFfY15XN-173" value="wrriteDB(ac)" style="html=1;verticalAlign=bottom;endArrow=block;edgeStyle=elbowEdgeStyle;elbow=vertical;curved=0;rounded=0;" edge="1" parent="1">
          <mxGeometry relative="1" as="geometry">
            <mxPoint x="696" y="1039.7142857142856" as="sourcePoint" />
            <Array as="points" />
            <mxPoint x="876" y="1039.7142857142856" as="targetPoint" />
            <mxPoint as="offset" />
          </mxGeometry>
        </mxCell>
        <mxCell id="xA2Wl5JB03KacFfY15XN-174" value="SaveShippinginfo()" style="html=1;verticalAlign=bottom;endArrow=block;edgeStyle=elbowEdgeStyle;elbow=vertical;curved=0;rounded=0;" edge="1" parent="1">
          <mxGeometry relative="1" as="geometry">
            <mxPoint x="885" y="1050" as="sourcePoint" />
            <Array as="points">
              <mxPoint x="985" y="1050" />
            </Array>
            <mxPoint x="1045" y="1050" as="targetPoint" />
            <mxPoint as="offset" />
          </mxGeometry>
        </mxCell>
        <mxCell id="xA2Wl5JB03KacFfY15XN-180" value="Nhập thông tin nhận hàng" style="html=1;verticalAlign=bottom;endArrow=block;edgeStyle=elbowEdgeStyle;elbow=vertical;curved=0;rounded=0;" edge="1" parent="1">
          <mxGeometry relative="1" as="geometry">
            <mxPoint x="131" y="990" as="sourcePoint" />
            <Array as="points">
              <mxPoint x="226" y="990" />
            </Array>
            <mxPoint x="296" y="990" as="targetPoint" />
            <mxPoint as="offset" />
          </mxGeometry>
        </mxCell>
        <mxCell id="xA2Wl5JB03KacFfY15XN-181" value="Hiển thị cửa sổ nhập thông tin" style="html=1;verticalAlign=bottom;endArrow=open;dashed=1;endSize=8;edgeStyle=elbowEdgeStyle;elbow=horizontal;curved=0;rounded=0;" edge="1" parent="1" source="xA2Wl5JB03KacFfY15XN-170">
          <mxGeometry relative="1" as="geometry">
            <mxPoint x="310" y="1110" as="targetPoint" />
            <Array as="points">
              <mxPoint x="745" y="1110" />
            </Array>
            <mxPoint x="1030" y="1110" as="sourcePoint" />
          </mxGeometry>
        </mxCell>
        <mxCell id="xA2Wl5JB03KacFfY15XN-182" value="Thanh toán đơn hàng" style="html=1;verticalAlign=bottom;endArrow=block;edgeStyle=elbowEdgeStyle;elbow=vertical;curved=0;rounded=0;" edge="1" parent="1">
          <mxGeometry relative="1" as="geometry">
            <mxPoint x="130" y="1140" as="sourcePoint" />
            <Array as="points">
              <mxPoint x="225" y="1140" />
            </Array>
            <mxPoint x="295" y="1140" as="targetPoint" />
            <mxPoint as="offset" />
          </mxGeometry>
        </mxCell>
      </root>
    </mxGraphModel>
  </diagram>
</mxfile>
